# xmcd
#
# Track frame offsets:
#	183
#	13795
#	27338
#	40133
#	53990
#	67805
#	83108
#	96743
#
# Disc length: 1431 seconds
#
# Revision: 0
# Processed by: cddbd v1.4PL0 Copyright (c) Steve Scherf et al.
# Submitted via: audiograbber 1.81.02
#
DISCID=64059508
DTITLE=Bull Moose Jackson - Greatest Hits: I Want a Bowlegged Woman
DYEAR=1994
DGENRE=Blues
TTITLE0=I Love You, Yes I Do 
TTITLE1=Little Girl, Don't Cry 
TTITLE2=All My Love Belongs To You 
TTITLE3=I've Had A Hard Way To Go 
TTITLE4=I Want A Bowlegged Woman (Glover) 
TTITLE5=Don't Ask Me Why 
TTITLE6=I Wanna Hug Ya, Kiss Ya, Squeeze Ya 
TTITLE7=Big Fat Mamas Are Back In Style Again 
EXTD=
EXTT0=
EXTT1=
EXTT2=
EXTT3=
EXTT4=
EXTT5=
EXTT6=
EXTT7=
PLAYORDER=
